<?xml version="1.0" encoding="utf-8" ?>
<svg
	xmlns="http://www.w3.org/2000/svg"
	xmlns:xlink="http://www.w3.org/1999/xlink"
	width="96px"
	height="32px"
	viewBox="0 0 96 32">

	<style>
svg
{
	background: #000;
}
	</style>

	<defs>
		<g id="A">
			<path d="M-2,-2 L-1,2 L1,2 L2,-2" fill="#fff" />
		</g>

		<g id="B">
			<path d="M-6,-1 L-6,1 L6,1 L6,-1" fill="#fff" />
		</g>

		<g id="C">
			<path d="M-10,-1 L-10,1 L10,1 L10,-1" fill="#fff" />
		</g>

		<g id="Gear6" transform="translate(16, 16)">
			<use xlink:href="#A" transform="rotate(0) translate(0, 4)" />
			<use xlink:href="#A" transform="rotate(60) translate(0, 4)" />
			<use xlink:href="#A" transform="rotate(120) translate(0, 4)" />
			<use xlink:href="#A" transform="rotate(180) translate(0, 4)" />
			<use xlink:href="#A" transform="rotate(240) translate(0, 4)" />
			<use xlink:href="#A" transform="rotate(300) translate(0, 4)" />
			<circle fill="#FFF" r="4" />
			<circle fill="#000" r="2" />
		</g>

		<g id="Gear12" transform="translate(16, 16)">
			<use xlink:href="#A" transform="rotate(0) translate(0, 8)" />
			<use xlink:href="#A" transform="rotate(30) translate(0, 8)" />
			<use xlink:href="#A" transform="rotate(60) translate(0, 8)" />
			<use xlink:href="#A" transform="rotate(90) translate(0, 8)" />
			<use xlink:href="#A" transform="rotate(120) translate(0, 8)" />
			<use xlink:href="#A" transform="rotate(150) translate(0, 8)" />
			<use xlink:href="#A" transform="rotate(180) translate(0, 8)" />
			<use xlink:href="#A" transform="rotate(210) translate(0, 8)" />
			<use xlink:href="#A" transform="rotate(240) translate(0, 8)" />
			<use xlink:href="#A" transform="rotate(270) translate(0, 8)" />
			<use xlink:href="#A" transform="rotate(300) translate(0, 8)" />
			<use xlink:href="#A" transform="rotate(330) translate(0, 8)" />
			<circle fill="#FFF" r="8" />
			<circle fill="#000" r="2" />
		</g>

		<g id="Gear18" transform="translate(16, 16)">
			<use xlink:href="#A" transform="rotate(0) translate(0, 12)" />
			<use xlink:href="#A" transform="rotate(20) translate(0, 12)" />
			<use xlink:href="#A" transform="rotate(40) translate(0, 12)" />
			<use xlink:href="#A" transform="rotate(60) translate(0, 12)" />
			<use xlink:href="#A" transform="rotate(80) translate(0, 12)" />
			<use xlink:href="#A" transform="rotate(100) translate(0, 12)" />
			<use xlink:href="#A" transform="rotate(120) translate(0, 12)" />
			<use xlink:href="#A" transform="rotate(140) translate(0, 12)" />
			<use xlink:href="#A" transform="rotate(160) translate(0, 12)" />
			<use xlink:href="#A" transform="rotate(180) translate(0, 12)" />
			<use xlink:href="#A" transform="rotate(200) translate(0, 12)" />
			<use xlink:href="#A" transform="rotate(220) translate(0, 12)" />
			<use xlink:href="#A" transform="rotate(240) translate(0, 12)" />
			<use xlink:href="#A" transform="rotate(260) translate(0, 12)" />
			<use xlink:href="#A" transform="rotate(280) translate(0, 12)" />
			<use xlink:href="#A" transform="rotate(300) translate(0, 12)" />
			<use xlink:href="#A" transform="rotate(320) translate(0, 12)" />
			<use xlink:href="#A" transform="rotate(340) translate(0, 12)" />
			<circle fill="#FFF" r="12" />
			<circle fill="#000" r="2" />
		</g>

	</defs>

	<rect fill="#000" x="0" y="0" width="96" height="32" />
	<use xlink:href="#Gear6" />
	<use xlink:href="#Gear12" x="32" />
	<use xlink:href="#Gear18" x="64" />

</svg>
